<?xml version="1.0" encoding="UTF-8" ?>
<!DOCTYPE svg PUBLIC "-//W3C//DTD SVG 1.1//EN" "http://www.w3.org/Graphics/SVG/1.1/DTD/svg11.dtd">
<svg width="1024pt" height="1024pt" viewBox="0 0 1024 1024" version="1.1" xmlns="http://www.w3.org/2000/svg">
<g id="#c23a32ff">
<path fill="#c23a32" opacity="1.00" d=" M 578.05 198.92 C 578.43 189.29 587.30 181.02 596.93 181.12 C 641.29 181.02 685.65 181.17 730.01 181.06 C 734.15 181.00 738.36 181.37 742.29 182.76 C 747.53 184.67 751.70 188.54 755.60 192.40 C 774.38 211.28 793.40 229.93 812.12 248.88 C 816.20 253.11 820.91 256.83 824.14 261.81 C 826.89 265.96 827.57 271.07 827.65 275.95 C 827.74 330.63 827.71 385.31 827.76 440.00 C 827.62 445.19 828.49 450.61 826.51 455.57 C 824.42 461.38 819.28 465.57 813.67 467.80 C 808.67 469.67 803.24 469.28 798.00 469.34 C 787.41 469.25 776.82 469.38 766.24 469.26 C 764.11 486.87 756.33 503.54 745.50 517.47 C 734.99 530.13 722.35 541.34 707.29 548.26 C 668.72 566.76 619.60 558.57 588.27 529.75 C 585.62 527.32 583.35 524.46 580.31 522.50 C 585.19 541.83 592.54 561.09 605.29 576.67 C 612.30 584.81 620.31 592.75 630.69 596.32 C 637.87 598.75 646.41 599.21 652.98 594.90 C 656.49 592.62 657.68 588.35 660.32 585.30 C 663.96 581.33 670.21 581.09 674.93 583.09 C 680.45 585.23 683.70 591.27 683.83 596.99 C 683.51 602.01 681.57 606.83 679.12 611.18 C 672.53 621.35 662.39 629.64 650.43 632.38 C 637.72 635.34 624.18 634.35 611.86 630.13 C 595.10 624.29 580.85 613.00 568.74 600.27 C 550.09 580.41 537.76 555.60 528.72 530.14 C 528.33 530.12 527.56 530.09 527.17 530.08 C 523.63 545.21 524.13 560.94 522.31 576.33 C 520.95 592.72 517.61 609.56 508.46 623.52 C 499.16 637.82 483.27 648.27 466.01 649.05 C 460.10 649.52 453.33 646.56 451.36 640.62 C 448.94 634.54 452.07 626.61 458.38 624.40 C 462.82 622.86 467.67 621.61 470.83 617.85 C 479.52 609.68 481.16 597.23 482.16 585.97 C 483.29 577.31 482.29 568.59 481.94 559.92 C 480.72 549.80 479.68 539.56 476.52 529.82 C 474.62 532.45 473.81 535.63 472.64 538.62 C 465.40 557.66 455.50 575.77 442.62 591.59 C 432.67 603.99 420.73 614.89 407.01 622.99 C 394.93 629.95 381.06 634.63 366.98 633.98 C 350.14 634.13 333.19 624.63 325.67 609.34 C 323.35 604.28 321.06 598.54 322.83 592.94 C 324.32 584.99 333.64 579.79 341.19 582.82 C 347.50 584.88 349.02 592.43 354.61 595.48 C 362.02 599.90 371.51 598.55 378.97 594.93 C 388.26 590.08 395.89 582.47 402.16 574.17 C 413.16 558.83 420.77 541.06 424.87 522.68 C 422.63 524.49 420.74 526.68 418.73 528.73 C 404.96 542.91 387.41 553.44 368.25 558.41 C 349.62 563.33 329.23 565.04 310.88 558.06 C 298.38 553.44 287.63 543.67 282.79 531.16 C 278.83 521.19 279.43 509.68 284.03 500.03 C 289.26 487.92 299.59 478.98 305.15 467.07 C 307.98 461.03 309.19 453.56 305.53 447.58 C 302.59 441.42 295.83 437.30 288.98 437.84 C 278.70 437.50 269.97 445.86 267.16 455.32 C 264.56 460.96 267.92 467.80 264.05 473.01 C 259.65 479.84 248.46 479.58 243.72 473.26 C 239.05 467.71 239.74 459.92 240.31 453.18 C 242.99 436.19 255.17 421.36 271.11 415.05 C 282.99 410.45 296.68 409.41 308.65 414.30 C 319.15 418.12 327.50 426.54 332.46 436.42 C 336.80 445.87 338.15 456.69 336.13 466.89 C 334.28 477.67 329.11 487.45 324.11 497.05 C 322.29 501.23 319.92 506.29 322.29 510.72 C 323.94 514.60 328.43 515.84 332.18 516.68 C 348.51 519.34 364.91 512.56 377.46 502.42 C 386.22 495.02 393.29 485.05 395.38 473.60 C 397.46 464.36 395.76 454.35 390.64 446.38 C 385.86 438.92 379.99 432.21 375.54 424.53 C 365.44 407.75 359.64 388.55 358.11 369.05 C 357.66 354.28 358.15 339.33 361.98 324.97 C 367.35 303.47 378.33 283.51 393.13 267.06 C 402.44 255.94 414.28 247.28 426.42 239.50 C 444.03 229.14 463.80 222.33 484.13 220.14 C 492.39 219.69 500.67 218.88 508.95 219.62 C 533.51 220.39 557.73 228.49 577.99 242.36 C 578.27 227.88 577.94 213.40 578.05 198.92 M 597.18 203.32 C 595.53 207.33 596.02 211.77 595.93 216.00 C 595.96 291.36 595.92 366.71 595.96 442.06 C 595.78 445.86 596.91 451.69 601.96 451.02 C 626.67 451.01 651.39 451.22 676.10 450.88 C 673.68 441.36 674.65 430.65 680.61 422.59 C 688.65 411.49 702.30 404.52 716.02 404.57 C 729.69 404.32 743.08 410.80 752.23 420.80 C 759.22 429.30 764.43 439.73 765.42 450.81 C 776.27 451.37 787.15 450.87 798.01 451.06 C 801.09 450.95 804.74 451.56 807.19 449.21 C 809.30 447.04 809.13 443.81 809.20 441.01 C 809.11 386.27 809.21 331.52 809.10 276.77 C 804.76 276.12 800.36 276.45 796.00 276.40 C 782.67 276.36 769.35 276.45 756.03 276.40 C 748.84 276.52 741.46 273.79 736.70 268.29 C 732.38 263.28 730.67 256.50 730.69 249.99 C 730.55 233.58 730.80 217.16 730.50 200.75 C 688.32 200.78 646.14 200.77 603.96 200.74 C 601.51 200.73 598.61 201.05 597.18 203.32 M 749.09 210.51 C 748.77 221.00 749.04 231.50 748.94 241.99 C 749.02 246.23 748.80 250.62 750.24 254.69 C 751.48 258.19 755.60 259.21 758.94 259.06 C 771.67 258.95 784.40 259.23 797.13 258.89 C 781.28 242.61 765.17 226.56 749.09 210.51 M 445.31 394.35 C 437.99 396.17 433.06 403.52 433.16 410.89 C 433.54 416.41 436.33 422.00 441.35 424.64 C 446.51 427.97 453.50 428.01 458.74 424.84 C 463.73 422.20 466.30 416.42 466.80 411.01 C 466.62 404.99 463.59 398.67 458.10 395.80 C 454.29 393.51 449.54 393.43 445.31 394.35 M 542.35 394.40 C 538.63 395.55 535.55 398.22 533.34 401.36 C 528.79 408.35 530.45 418.78 537.22 423.79 C 544.89 429.91 558.15 427.25 562.18 418.07 C 565.87 411.21 563.89 401.99 557.72 397.25 C 553.53 393.63 547.53 393.25 542.35 394.40 M 694.85 439.90 C 693.40 443.46 694.82 447.96 698.34 449.71 C 702.92 450.82 708.00 449.26 712.31 451.65 C 715.75 453.96 717.80 458.87 715.87 462.76 C 714.16 467.04 709.54 469.57 705.02 469.22 C 671.98 469.42 638.95 469.21 605.92 469.33 C 612.29 488.66 628.45 504.54 648.19 509.84 C 662.87 513.61 678.85 513.46 693.12 508.08 C 710.58 501.36 725.38 487.02 731.05 469.01 C 734.40 458.75 734.45 446.30 727.58 437.43 C 723.23 431.38 715.34 428.25 708.01 429.04 C 702.01 429.68 696.39 433.95 694.85 439.90 Z" />
<path fill="#c23a32" opacity="1.00" d=" M 629.36 302.16 C 637.25 302.07 645.15 302.02 653.04 302.13 C 659.73 302.30 666.58 304.74 670.96 309.98 C 679.03 319.67 676.76 336.21 665.97 342.95 C 659.21 347.05 651.05 346.29 643.50 346.14 C 643.30 354.38 643.41 362.63 643.56 370.87 C 638.83 371.00 634.11 371.01 629.39 370.84 C 629.55 347.95 629.61 325.05 629.36 302.16 M 643.29 315.88 C 643.41 321.63 643.39 327.38 643.35 333.13 C 648.08 333.22 653.22 333.94 657.59 331.67 C 662.15 329.17 662.14 322.48 659.30 318.71 C 655.17 314.42 648.60 316.01 643.29 315.88 Z" />
<path fill="#c23a32" opacity="1.00" d=" M 684.06 302.09 C 691.72 302.14 699.38 301.99 707.04 302.16 C 715.24 302.42 723.54 305.69 728.84 312.12 C 735.80 320.29 737.49 331.61 736.27 341.99 C 735.60 353.08 728.90 364.15 718.41 368.43 C 714.81 369.91 710.98 371.03 707.06 370.95 C 699.39 370.96 691.72 370.93 684.06 370.95 C 684.06 348.00 684.06 325.05 684.06 302.09 M 697.96 315.86 C 697.94 329.70 697.94 343.54 697.95 357.39 C 703.69 357.41 710.20 357.82 714.93 353.94 C 720.85 348.98 722.42 340.55 721.51 333.21 C 720.97 327.29 718.46 320.96 713.00 317.99 C 708.43 315.32 703.01 315.95 697.96 315.86 Z" />
<path fill="#c23a32" opacity="1.00" d=" M 744.31 302.22 C 757.48 302.04 770.66 302.10 783.84 302.22 C 783.88 306.77 783.86 311.33 783.87 315.89 C 775.41 315.98 766.96 315.89 758.51 315.91 C 758.38 320.61 758.37 325.32 758.56 330.03 C 765.68 330.06 772.80 330.05 779.92 330.05 C 779.95 334.68 779.94 339.31 779.93 343.94 C 772.74 343.96 765.54 343.80 758.36 344.09 C 758.50 353.04 758.49 361.99 758.47 370.95 C 753.85 370.91 749.22 371.00 744.60 370.83 C 744.21 347.97 744.66 325.09 744.31 302.22 Z" />
</g>
<g id="#1d1d1cfe">
<path fill="#1d1d1c" opacity="1.00" d=" M 179.38 692.43 C 188.75 691.09 198.70 692.26 207.02 696.95 C 218.52 703.08 226.33 715.14 228.15 727.94 C 229.90 737.32 227.80 747.08 223.57 755.52 C 218.16 766.06 207.78 773.76 196.26 776.32 C 184.13 778.83 170.73 776.85 160.71 769.26 C 155.18 764.71 150.30 759.14 147.54 752.47 C 142.14 739.87 142.75 724.63 149.86 712.82 C 155.93 702.03 167.01 693.98 179.38 692.43 M 182.37 708.43 C 178.30 708.96 174.44 710.68 171.24 713.23 C 161.07 721.27 159.29 736.84 164.77 748.09 C 170.70 760.63 188.25 765.36 199.82 757.82 C 214.75 748.50 215.47 724.01 201.58 713.42 C 196.32 708.97 189.07 707.52 182.37 708.43 Z" />
<path fill="#1d1d1c" opacity="1.00" d=" M 257.30 696.31 C 267.26 691.23 279.32 690.60 289.89 694.12 C 298.79 697.28 306.52 704.11 310.31 712.82 C 305.49 715.79 300.59 718.65 295.45 721.01 C 292.59 715.91 288.48 710.96 282.66 709.31 C 276.12 707.50 268.60 707.86 263.01 712.03 C 256.71 716.27 252.88 723.72 252.52 731.24 C 251.44 739.70 253.83 748.89 260.17 754.84 C 265.78 760.69 274.74 762.29 282.40 760.33 C 288.62 758.63 293.30 753.85 296.85 748.69 C 301.64 751.36 306.49 753.95 311.04 757.03 C 305.73 766.37 296.96 774.07 286.25 776.26 C 276.74 778.06 266.46 777.66 257.61 773.43 C 245.72 767.73 237.23 755.80 235.33 742.80 C 234.50 735.29 234.51 727.47 237.23 720.32 C 240.52 710.15 247.93 701.41 257.30 696.31 Z" />
<path fill="#1d1d1c" opacity="1.00" d=" M 411.33 692.36 C 420.48 691.14 430.13 692.29 438.34 696.67 C 449.65 702.84 457.74 714.40 459.89 727.08 C 462.12 739.49 458.88 752.97 450.68 762.64 C 437.49 778.95 411.81 781.84 394.59 770.44 C 385.55 763.96 378.49 754.23 376.83 743.07 C 374.62 732.10 377.10 720.44 383.06 711.03 C 389.13 701.04 399.87 694.28 411.33 692.36 M 414.34 708.38 C 410.04 708.97 406.00 710.92 402.69 713.70 C 390.19 724.46 391.02 746.90 404.26 756.75 C 413.55 763.68 428.07 762.57 435.80 753.77 C 444.76 744.10 445.54 728.02 437.32 717.65 C 432.23 710.48 422.92 707.06 414.34 708.38 Z" />
<path fill="#1d1d1c" opacity="1.00" d=" M 627.04 697.03 C 634.66 691.59 644.52 691.15 653.47 692.48 C 661.33 693.90 669.30 697.95 673.52 704.95 C 669.96 709.30 664.94 712.39 660.54 715.90 C 657.53 711.85 653.33 708.18 648.04 707.99 C 643.04 707.47 636.23 707.78 633.99 713.21 C 632.22 717.61 636.00 721.73 639.95 723.09 C 649.14 726.71 659.67 727.83 667.29 734.69 C 674.21 740.52 675.50 750.73 673.06 759.03 C 669.57 770.76 656.82 777.79 645.00 777.15 C 632.50 777.97 619.69 771.91 613.18 761.06 C 617.46 757.70 621.43 753.97 625.92 750.89 C 629.24 755.35 633.51 759.57 639.20 760.63 C 644.79 761.81 652.08 761.84 655.81 756.74 C 658.54 752.91 656.81 747.34 652.65 745.36 C 642.69 740.00 629.85 739.96 621.77 731.21 C 612.62 721.28 616.03 704.15 627.04 697.03 Z" />
<path fill="#1d1d1c" opacity="1.00" d=" M 315.21 693.23 C 334.76 693.13 354.31 693.23 373.85 693.15 C 373.96 698.59 374.03 704.05 373.81 709.49 C 366.87 709.17 359.91 709.18 352.97 709.41 C 353.05 731.49 353.17 753.58 352.87 775.66 C 347.29 775.58 341.71 775.54 336.13 775.67 C 335.87 753.60 336.09 731.52 336.01 709.45 C 329.07 709.25 322.13 709.25 315.20 709.56 C 315.08 704.11 315.17 698.67 315.21 693.23 Z" />
<path fill="#1d1d1c" opacity="1.00" d=" M 470.07 693.14 C 480.40 693.33 490.74 693.08 501.07 693.26 C 509.54 693.43 518.33 696.42 523.98 702.97 C 534.44 715.05 531.34 736.26 517.34 744.32 C 508.20 750.11 497.03 749.02 486.72 749.07 C 486.63 757.92 486.70 766.79 486.74 775.65 C 481.17 775.64 475.61 775.55 470.05 775.77 C 470.05 748.22 469.99 720.68 470.07 693.14 M 486.79 709.08 C 486.69 717.07 486.72 725.07 486.71 733.07 C 493.07 732.76 499.75 734.01 505.89 731.93 C 514.29 728.87 515.23 715.78 507.71 711.21 C 501.39 707.52 493.72 709.38 486.79 709.08 Z" />
<path fill="#1d1d1c" opacity="1.00" d=" M 539.40 693.34 C 545.17 693.23 550.95 693.20 556.72 693.28 C 556.66 709.85 556.71 726.42 556.80 742.99 C 556.65 748.50 558.48 754.46 563.01 757.90 C 569.05 761.84 577.81 762.37 583.48 757.45 C 587.46 754.25 589.01 749.00 589.00 744.06 C 589.02 727.11 588.78 710.16 589.11 693.21 C 594.69 693.22 600.28 693.27 605.87 693.21 C 606.14 709.47 605.92 725.73 606.04 741.99 C 606.21 750.65 604.65 759.97 598.76 766.70 C 592.53 774.16 582.55 777.62 573.00 777.17 C 563.23 777.60 553.05 773.95 546.54 766.49 C 541.44 760.58 539.60 752.64 539.52 745.00 C 539.35 727.78 539.51 710.56 539.40 693.34 Z" />
<path fill="#1d1d1c" opacity="1.00" d=" M 710.15 693.23 C 720.46 693.26 730.76 693.11 741.07 693.25 C 749.56 693.38 758.43 696.31 764.08 702.91 C 769.78 709.65 771.25 719.14 769.41 727.61 C 767.40 737.32 759.27 745.24 749.77 747.73 C 742.40 749.84 734.66 748.75 727.11 749.11 C 726.68 757.95 727.33 766.81 726.87 775.65 C 721.28 775.60 715.69 775.56 710.11 775.71 C 710.02 748.22 709.94 720.72 710.15 693.23 M 727.09 709.09 C 726.91 717.04 726.87 725.00 727.10 732.96 C 733.18 732.95 739.42 733.68 745.40 732.37 C 754.14 729.83 755.68 716.68 748.41 711.60 C 742.15 707.41 734.15 709.52 727.09 709.09 Z" />
<path fill="#1d1d1c" opacity="1.00" d=" M 779.51 693.33 C 789.70 693.11 799.88 693.21 810.07 693.20 C 820.94 693.23 831.88 697.70 839.17 705.86 C 850.70 719.02 852.45 739.23 844.69 754.68 C 837.98 767.63 823.46 775.53 809.07 775.65 C 799.18 775.68 789.30 775.57 779.41 775.66 C 779.76 748.22 779.49 720.77 779.51 693.33 M 796.69 709.19 C 796.20 726.13 796.43 743.11 796.62 760.07 C 804.90 760.08 814.05 761.27 821.25 756.21 C 834.28 747.13 835.20 725.83 824.12 714.87 C 816.67 708.12 806.02 708.86 796.69 709.19 Z" />
<path fill="#1d1d1c" opacity="1.00" d=" M 859.20 693.25 C 875.76 693.16 892.32 693.20 908.89 693.23 C 909.00 698.50 909.05 703.77 909.05 709.04 C 898.06 709.14 887.06 709.03 876.06 709.07 C 875.88 715.40 875.92 721.73 876.00 728.06 C 885.79 728.20 895.59 727.85 905.38 728.21 C 905.24 733.38 905.30 738.57 905.48 743.75 C 895.66 743.87 885.83 743.58 876.01 743.87 C 875.83 754.48 876.10 765.09 875.89 775.70 C 870.31 775.59 864.73 775.61 859.16 775.65 C 859.04 748.18 859.01 720.71 859.20 693.25 Z" />
</g>
</svg>
