<svg xmlns="http://www.w3.org/2000/svg" xml:space="preserve" width="280mm" height="210mm" fill-rule="evenodd" clip-rule="evenodd" image-rendering="optimizeQuality" shape-rendering="geometricPrecision" text-rendering="geometricPrecision" viewBox="0 0 28000 21000"><path fill="#FEFEFE" fill-rule="nonzero" d="M15882.86 1292.92c16.19-410.49 394.31-763.03 804.8-758.76 1890.96-4.27 3781.93 2.12 5672.88-2.56 176.48-2.55 355.94 13.22 523.47 72.47 223.36 81.42 401.12 246.38 567.37 410.92 800.54 804.82 1611.32 1599.82 2409.31 2407.61 173.92 180.32 374.7 338.89 512.37 551.17 117.24 176.91 146.22 394.74 149.63 602.76 3.83 2330.87 2.56 4661.75 4.69 6993.04-5.97 221.24 31.12 452.29-53.29 663.72-89.09 247.66-308.2 426.27-547.33 521.33-213.14 79.71-444.61 63.09-667.98 65.65-451.42-3.83-902.85 1.7-1353.85-3.41-90.79 750.67-422.43 1461.27-884.09 2055.07-448.02 539.67-986.83 1017.52-1628.8 1312.5-1644.15 788.61-3738.01 439.5-5073.52-789.03-112.97-103.58-209.74-225.5-339.33-309.05 208.03 823.99 521.34 1645 1064.84 2309.13 298.82 346.98 640.27 685.45 1082.74 837.63 306.06 103.59 670.11 123.19 950.17-60.53 149.63-97.19 200.35-279.21 312.89-409.22 155.16-169.23 421.59-179.47 622.79-94.21 235.3 91.22 373.83 348.69 379.38 592.53-13.64 213.98-96.34 419.45-200.78 604.88-280.91 433.51-713.16 786.91-1222.98 903.7-541.8 126.18-1118.98 83.98-1644.14-95.91-714.45-248.95-1321.89-730.2-1838.11-1272.86-795-846.58-1320.59-1904.17-1705.95-2989.47-16.62-.85-49.45-2.14-66.08-2.56-150.89 644.95-129.58 1315.48-207.17 1971.53-57.96 698.66-200.34 1416.51-590.38 2011.59-396.44 609.58-1073.79 1055.03-1809.54 1088.28-251.94 20.04-540.52-106.14-624.49-359.34-103.17-259.18 30.26-597.21 299.24-691.43 189.27-65.65 396.01-118.92 530.71-279.21 370.44-348.27 440.34-878.98 482.97-1358.96 48.18-369.16 5.55-740.87-9.38-1110.45-52-431.39-96.34-867.89-231.04-1283.09-80.99 112.11-115.52 247.66-165.39 375.12-308.62 811.63-730.63 1583.61-1279.68 2257.99-424.15 528.57-933.11 993.22-1517.96 1338.5-514.95 296.68-1106.19 496.18-1706.38 468.47-717.85 6.39-1440.39-398.56-1760.95-1050.34-98.89-215.7-196.52-460.37-121.07-699.09 63.52-338.89 460.81-560.55 782.64-431.39 268.99 87.81 333.78 409.65 572.07 539.67 315.87 188.41 720.41 130.86 1038.41-23.44 396.01-206.75 721.26-531.15 988.53-884.96 468.9-653.9 793.3-1411.4 968.07-2194.89-95.48 77.16-176.05 170.51-261.73 257.9-586.98 604.46-1335.1 1053.32-2151.84 1265.18-794.15 209.73-1663.33 282.62-2445.55-14.92-532.84-196.94-991.08-613.4-1197.4-1146.68-168.81-425-143.23-915.63 52.86-1326.99 222.94-516.22 663.28-897.31 900.29-1405.01 120.64-257.47 172.21-575.89 16.2-830.8-125.33-262.6-413.49-438.22-705.49-415.2-438.2-14.49-810.35 341.87-930.13 745.13-110.83 240.42 32.4 531.99-132.57 754.08-187.57 291.15-664.56 280.06-866.62 10.66-199.07-236.58-169.66-568.66-145.36-855.97 114.25-724.24 633.45-1356.41 1312.93-1625.38 506.42-196.09 1089.99-240.43 1600.23-31.97 447.6 162.83 803.54 521.76 1014.97 942.92 185 402.83 242.55 864.06 156.45 1298.86-78.87 459.52-299.25 876.42-512.39 1285.65-77.59 178.18-178.6 393.87-77.59 582.71 70.34 165.4 261.74 218.26 421.59 254.07 696.12 113.39 1395.2-175.63 1930.18-607.87 373.41-315.45 674.8-740.45 763.89-1228.53 88.66-393.87 16.19-820.58-202.06-1160.32-203.76-318-453.98-604.03-643.67-931.42-430.54-715.29-677.78-1533.73-743.01-2364.97-19.17-629.61 1.71-1266.89 164.98-1879.02 228.9-916.49 696.96-1767.34 1327.84-2468.56 396.87-474.02 901.58-843.17 1419.08-1174.81 750.66-441.63 1593.41-731.92 2460.03-825.27 352.1-19.19 705.05-53.72 1058.01-22.18 1046.93 32.83 2079.37 378.12 2943.01 969.36 11.94-617.25-2.13-1234.49 2.56-1851.75zm815.46 187.57c-70.34 170.93-49.44 360.2-53.29 540.52 1.28 3212.41-.42 6424.39 1.28 9636.37-7.67 161.99 40.51 410.51 255.77 381.95 1053.33-.42 2107.08 8.53 3160.4-5.97-103.15-405.81-61.8-862.36 192.26-1205.94 342.72-473.16 924.59-770.28 1509.44-768.14 582.72-10.65 1153.5 265.57 1543.54 691.85 297.97 362.33 520.06 806.94 562.26 1279.25 462.51 23.87 926.3 2.56 1389.24 10.65 131.28-4.69 286.88 21.32 391.32-78.85 89.93-92.5 82.68-230.19 85.67-349.55-3.83-2333.43.43-4667.29-4.26-7001.15-185-27.7-372.56-13.64-558.42-15.77-568.23-1.7-1136.03 2.13-1703.82 0-306.49 5.12-621.08-111.26-823.99-345.71-184.15-213.57-257.05-502.58-256.19-780.08-5.97-699.52 4.69-1399.47-8.11-2098.99-1798.02 1.28-3596.05.86-5394.09-.42-104.43-.42-228.05 13.22-289.01 109.98zm6475.55 306.49c-13.64 447.17-2.13 894.75-6.39 1341.92 3.41 180.74-5.97 367.88 55.42 541.37 52.85 149.19 228.48 192.67 370.85 186.28 542.65-4.69 1085.31 7.25 1627.95-7.25-675.65-693.98-1362.38-1378.15-2047.83-2062.32zM10224.48 9623.63c-312.04 77.59-522.19 390.9-517.93 705.05 16.21 235.31 135.13 473.6 349.13 586.13 219.95 141.96 517.92 143.66 741.29 8.53 212.7-112.53 322.26-358.92 343.57-589.53-7.68-256.62-136.83-526.03-370.85-648.38-162.42-97.6-364.9-101.02-545.21-61.8zm4136.57 2.12c-158.57 49.03-289.87 162.84-384.07 296.7-193.96 297.97-123.2 742.57 165.4 956.14 326.95 260.88 892.19 147.49 1063.98-243.84 157.29-292.43 72.89-685.45-190.12-887.5-178.61-154.31-434.37-170.52-655.19-121.5zm6500.7 1939.56c-61.8 151.75-1.28 343.58 148.77 418.18 195.24 47.32 411.78-19.19 595.51 82.7 146.64 98.47 234.03 307.76 151.76 473.59-72.9 182.44-269.84 290.29-462.51 275.38-1408.42 8.51-2816.41-.44-4224.39 4.68 271.54 824 960.4 1500.92 1801.86 1726.84 625.78 160.71 1306.97 154.32 1915.26-75.02 744.27-286.46 1375.16-897.74 1616.87-1665.46 142.8-437.36 144.92-968.07-147.93-1346.17-185.43-257.9-521.76-391.32-834.21-357.65-255.77 27.27-495.34 209.3-560.99 462.93z"/><path fill="#FEFEFE" fill-rule="nonzero" d="M18070.08 5693.79c336.33-3.83 673.09-5.97 1009.42-1.28 285.18 7.25 577.18 111.27 763.88 334.63 344.01 413.07 247.25 1118.12-212.71 1405.43-288.16 174.77-636.01 142.38-957.84 135.99-8.53 351.25-3.84 702.92 2.55 1054.18-201.62 5.53-402.82 5.97-604.02-1.28 6.81-975.75 9.37-1951.92-1.28-2927.67zm593.8 584.85c5.11 245.11 4.26 490.22 2.56 735.32 201.62 3.85 420.73 34.54 607.01-62.22 194.39-106.58 193.95-391.75 72.9-552.46-176.06-182.87-456.12-115.09-682.47-120.64zm1737.92-587.83c326.53 2.14 653.06-4.27 979.59 2.98 349.53 11.08 703.35 150.48 929.27 424.58 296.7 348.26 368.74 830.8 316.73 1273.29-28.56 472.73-314.17 944.61-761.33 1127.06-153.45 63.09-316.73 110.83-483.83 107.42-326.95.43-653.9-.85-980.43 0V5690.81zm592.52 586.99c-.85 589.96-.85 1179.93-.42 1770.31 244.69.86 522.18 18.33 723.82-147.05 252.35-211.44 319.28-570.79 280.49-883.68-23.02-252.36-130.02-522.19-362.77-648.79-194.81-113.81-425.84-86.96-641.12-90.79zm1975.79-581.45c561.41-7.67 1123.24-5.11 1685.07 0 1.7 193.96.86 388.34 1.28 582.73-360.63 3.83-720.84 0-1081.04.84-5.54 200.36-5.96 401.13 2.14 601.9 303.51 1.28 607.01.86 910.52.86 1.28 197.37.86 394.73.42 592.1-306.48.84-613.4-5.97-919.47 6.39 5.97 381.52 5.54 763.03 4.68 1144.97-196.93-1.7-394.3 2.13-591.24-5.11-16.62-974.46 2.57-1949.79-12.36-2924.68z"/></svg>